<?xml version="1.0" encoding="iso-8859-1"?>
<!-- Generator: Adobe Illustrator 19.0.0, SVG Export Plug-In . SVG Version: 6.00 Build 0)  -->
<svg version="1.1" id="Capa_1" xmlns="http://www.w3.org/2000/svg" xmlns:xlink="http://www.w3.org/1999/xlink" x="0px" y="0px"
	 viewBox="0 0 480.013 480.013" style="enable-background:new 0 0 480.013 480.013;" xml:space="preserve">
<path style="fill:#EA9D2D;" d="M72.002,144.003l168,96v192l-168-96v-120"/>
<g>
	<path style="fill:#F7BA61;" d="M72.002,144.003l-64,40l168,88l64-32L72.002,144.003z"/>
	<path style="fill:#F7BA61;" d="M303.898,16.067l-63.896,31.936l168,96l64-32L304.106,16.067
		C304.043,16.026,303.962,16.026,303.898,16.067z"/>
	<path style="fill:#F7BA61;" d="M184.002,16.003l56,32l-168,96l-56-32L184.002,16.003z"/>
</g>
<path style="fill:#EA9D2D;" d="M72.002,144.003l168-96l168,96v192l-96,56l-72,40v-192"/>
<path style="fill:#FBB540;" d="M408.002,144.003v192l-96,56l-72,40v-192L408.002,144.003z"/>
<path style="fill:#F7BA61;" d="M408.002,144.003l56,40l-160,88l-64-32L408.002,144.003z"/>
<circle style="fill:#C7463B;" cx="392.002" cy="384.003" r="80"/>
<path style="fill:#F0F0F0;" d="M344.002,368.003h96v32h-96V368.003z"/>
<path d="M416.002,299.411v-79.88l51.856-28.52c3.872-2.127,5.287-6.991,3.16-10.864c-0.577-1.051-1.384-1.959-2.36-2.656
	l-45.184-32.272l52.104-26.016c3.953-1.974,5.556-6.779,3.582-10.732c-0.707-1.415-1.817-2.588-3.19-3.372L308.346,9.283
	c-2.431-1.474-5.444-1.612-8-0.368L240.25,38.931L188.002,9.059c-2.459-1.405-5.477-1.405-7.936,0l-168,96
	c-3.835,2.194-5.165,7.081-2.971,10.917c0.708,1.238,1.734,2.263,2.971,2.971l44.384,25.36L3.762,177.219
	c-3.747,2.341-4.887,7.276-2.546,11.024c0.753,1.206,1.814,2.189,3.074,2.848l59.712,31.312v113.6c-0.006,2.864,1.52,5.512,4,6.944
	l167.936,95.952l0.088,0.048c0.385,0.2,0.786,0.366,1.2,0.496c0.24,0.088,0.464,0.224,0.712,0.288
	c0.673,0.179,1.367,0.27,2.064,0.272c0.683,0,1.364-0.089,2.024-0.264c0.224-0.056,0.432-0.184,0.656-0.264
	c0.416-0.124,0.82-0.285,1.208-0.48l62.552-34.752c11.16,47.275,58.531,76.552,105.806,65.393s76.552-58.531,65.393-105.806
	C470.307,332.762,446.716,308.107,416.002,299.411L416.002,299.411z M303.826,262.971l-46.872-23.44l150.568-86.04l41.48,29.6
	L303.826,262.971z M240.002,230.787l-151.88-86.784l151.88-86.784l151.88,86.784L240.002,230.787z M303.762,25.083l151.288,86.448
	l-46.8,23.4L256.954,48.475L303.762,25.083z M184.002,25.219l39.872,22.784L72.002,134.787L32.13,112.003L184.002,25.219z
	 M72.186,153.323l150.864,86.208l-46.96,23.48l-152-79.624L72.186,153.323z M80.002,230.747l92.288,48.344
	c2.277,1.193,4.988,1.22,7.288,0.072l52.424-26.216v165.272l-152-86.856L80.002,230.747z M248.002,418.403V252.947l52.424,26.256
	c2.352,1.173,5.13,1.116,7.432-0.152l92.144-50.72v68.08c-2.64-0.24-5.296-0.408-8-0.408c-48.577,0.057-87.943,39.423-88,88
	c0,1.08,0.12,2.128,0.16,3.2L248.002,418.403z M392.002,456.003c-39.764,0-72-32.236-72-72s32.236-72,72-72s72,32.236,72,72l0,0
	C463.954,423.747,431.747,455.954,392.002,456.003z"/>
<path d="M344.002,360.003c-4.418,0-8,3.582-8,8v32c0,4.418,3.582,8,8,8h96c4.418,0,8-3.582,8-8v-32c0-4.418-3.582-8-8-8H344.002z
	 M432.002,392.003h-80v-16h80V392.003z"/>
<g>
</g>
<g>
</g>
<g>
</g>
<g>
</g>
<g>
</g>
<g>
</g>
<g>
</g>
<g>
</g>
<g>
</g>
<g>
</g>
<g>
</g>
<g>
</g>
<g>
</g>
<g>
</g>
<g>
</g>
</svg>
